<?xml version="1.0" standalone="no"?>
<!DOCTYPE svg PUBLIC "-//W3C//DTD SVG 20010904//EN"
 "http://www.w3.org/TR/2001/REC-SVG-20010904/DTD/svg10.dtd">
<svg version="1.0" xmlns="http://www.w3.org/2000/svg"
 width="512.000000pt" height="512.000000pt" viewBox="0 0 512.000000 512.000000"
 preserveAspectRatio="xMidYMid meet">
<metadata>
Created by potrace 1.11, written by Peter Selinger 2001-2013
</metadata>
<g transform="translate(0.000000,512.000000) scale(0.100000,-0.100000)"
fill="#000000" stroke="none">
<path d="M2218 5015 c-2 -1 -39 -5 -83 -9 -90 -7 -132 -11 -190 -20 -39 -6
-53 -9 -120 -22 -16 -4 -39 -8 -50 -9 -11 -2 -21 -4 -22 -5 -2 -2 -6 -3 -10
-4 -5 -1 -17 -5 -28 -9 -11 -3 -31 -8 -45 -11 -14 -2 -37 -9 -52 -15 -16 -6
-28 -7 -28 -3 0 4 -4 2 -8 -3 -4 -6 -27 -17 -52 -24 -46 -13 -113 -41 -162
-67 -16 -8 -28 -12 -28 -9 0 4 -13 -3 -29 -14 -16 -12 -34 -21 -40 -21 -6 0
-11 -4 -11 -10 0 -5 -3 -9 -7 -8 -13 2 -46 -14 -79 -39 -17 -13 -34 -23 -38
-23 -4 0 -12 -4 -19 -10 -7 -5 -59 -46 -116 -90 -56 -44 -100 -80 -96 -80 4 0
-3 -9 -17 -19 -33 -26 -107 -101 -100 -101 4 0 -8 -13 -26 -29 -17 -17 -32
-32 -32 -35 0 -3 -10 -17 -22 -32 -13 -14 -23 -28 -23 -32 0 -3 -9 -16 -20
-28 -35 -39 -46 -54 -39 -54 4 0 -2 -9 -14 -21 -12 -11 -20 -24 -17 -30 4 -5
2 -9 -4 -9 -9 0 -19 -16 -62 -102 -10 -20 -23 -39 -28 -42 -5 -4 -12 -19 -16
-35 -3 -16 -13 -35 -21 -42 -8 -6 -14 -20 -14 -30 0 -9 -7 -24 -15 -33 -9 -8
-15 -19 -15 -23 1 -7 -12 -40 -46 -120 -8 -17 -14 -36 -14 -42 0 -6 -5 -11
-11 -11 -5 0 -7 -5 -4 -10 4 -6 2 -16 -3 -23 -6 -7 -11 -15 -11 -19 -1 -5 -1
-9 -2 -10 0 -2 -2 -10 -4 -18 -8 -37 -10 -45 -17 -50 -3 -3 -8 -19 -10 -35 -2
-17 -7 -33 -11 -36 -4 -3 -10 -19 -13 -35 -3 -16 -14 -58 -24 -94 -11 -36 -22
-76 -24 -90 -3 -14 -8 -36 -11 -50 -4 -14 -8 -36 -9 -50 -2 -14 -6 -32 -10
-40 -3 -8 -8 -31 -10 -50 -2 -19 -6 -42 -9 -50 -3 -8 -8 -37 -12 -65 -3 -27
-8 -61 -9 -75 -2 -14 -7 -52 -10 -84 -4 -32 -9 -63 -13 -69 -3 -5 1 -13 8 -18
8 -5 9 -9 3 -9 -6 0 -12 -23 -13 -52 -4 -92 -9 -139 -14 -144 -3 -3 -2 -17 2
-32 4 -15 4 -42 0 -59 -4 -19 -3 -33 2 -33 6 0 6 -7 1 -17 -5 -10 -6 -27 -2
-38 4 -11 4 -30 -1 -41 -4 -12 -5 -24 -3 -27 3 -3 7 -49 9 -103 4 -99 10 -167
20 -236 3 -21 7 -55 10 -75 7 -46 16 -101 22 -128 5 -20 13 -68 15 -92 1 -7 4
-13 8 -13 4 0 7 -6 7 -12 1 -29 14 -82 25 -102 6 -11 11 -22 10 -23 -1 -2 -2
-4 -1 -5 0 -2 2 -13 5 -26 2 -13 11 -37 20 -53 8 -17 13 -37 10 -45 -3 -8 -1
-14 4 -14 6 0 10 -7 10 -15 0 -8 4 -15 8 -15 5 0 9 -6 9 -14 0 -20 98 -217
120 -242 10 -11 19 -26 21 -33 1 -7 11 -22 22 -34 11 -11 20 -27 20 -34 0 -7
5 -13 10 -13 6 0 10 -7 10 -15 0 -8 4 -15 9 -15 4 0 24 -22 43 -50 19 -27 38
-47 41 -43 4 3 7 1 7 -5 0 -6 34 -45 75 -87 41 -41 75 -73 75 -70 0 3 12 -7
28 -22 15 -15 44 -39 65 -53 20 -14 37 -28 37 -32 0 -5 7 -8 15 -8 8 0 15 -4
15 -10 0 -5 7 -10 15 -10 8 0 15 -5 15 -11 0 -5 5 -7 10 -4 6 3 10 2 10 -3 0
-5 15 -17 33 -26 17 -9 51 -28 75 -42 23 -13 42 -22 42 -19 0 3 10 -3 22 -15
12 -11 28 -20 35 -20 7 0 28 -9 48 -20 19 -11 35 -17 35 -14 0 3 12 -2 28 -10
24 -13 57 -27 72 -31 3 0 42 -13 87 -29 45 -15 87 -25 92 -22 5 4 12 2 15 -3
6 -9 105 -37 119 -33 4 1 16 -2 25 -7 9 -5 40 -12 67 -15 28 -3 61 -8 75 -11
36 -7 105 -15 185 -21 38 -3 74 -9 81 -14 6 -6 14 -7 17 -3 10 9 57 10 57 2 0
-4 13 -4 29 1 15 4 33 5 39 1 5 -3 49 -4 97 -1 47 3 93 1 101 -3 8 -4 14 -4
14 0 0 4 39 9 86 10 48 2 92 7 99 13 9 8 15 8 20 0 3 -6 11 -7 17 -4 6 4 30 8
52 10 54 3 186 26 291 51 17 4 38 8 48 9 9 1 19 3 22 4 3 1 8 3 13 5 4 1 19 5
33 9 14 4 32 8 40 10 8 1 59 17 114 34 55 17 104 31 109 31 5 0 12 3 15 8 3 4
24 14 46 22 22 8 67 26 100 41 33 15 75 33 93 41 17 8 32 17 32 21 0 5 3 7 8
6 10 -2 63 23 91 44 13 10 27 15 32 12 5 -3 9 -1 9 5 0 6 16 18 35 27 19 9 35
20 35 25 0 5 3 8 8 8 20 -3 32 2 26 13 -4 6 -3 8 4 4 6 -3 16 0 24 7 7 7 38
30 68 51 30 22 57 43 58 48 2 4 9 8 16 8 7 0 27 16 44 36 18 20 32 32 32 28 0
-8 23 13 130 120 61 61 94 98 182 205 34 41 76 110 71 115 -4 3 1 6 10 6 8 0
19 10 23 22 3 12 10 26 15 32 25 30 77 116 67 109 -7 -3 -1 9 12 28 13 19 28
35 32 37 4 2 4 10 1 18 -3 8 1 14 8 14 7 0 9 3 6 6 -4 4 2 19 12 33 10 14 19
28 19 31 0 3 5 16 10 30 5 14 9 27 8 30 0 3 7 16 17 30 9 13 17 32 17 42 0 10
4 18 9 18 9 0 25 51 21 66 -1 4 2 10 7 13 7 5 33 76 48 126 4 14 4 15 21 70
16 50 31 103 39 140 3 11 7 31 11 45 3 14 7 34 9 45 2 11 7 31 10 45 3 14 8
39 11 55 2 17 6 39 8 50 2 11 7 45 11 75 4 30 11 59 15 64 5 5 5 19 0 31 -5
13 -6 25 -3 28 15 16 22 330 10 487 -8 110 -21 207 -33 260 -3 14 -7 36 -8 50
-1 14 -5 30 -9 36 -3 6 -9 30 -13 53 -4 23 -11 44 -15 47 -5 3 -7 10 -4 15 4
5 3 15 -2 22 -4 6 -8 14 -8 17 -2 16 -29 87 -38 98 -5 6 -6 12 -2 12 4 0 2 7
-5 15 -7 8 -9 15 -6 15 4 0 1 10 -6 23 -7 12 -13 24 -13 27 -3 23 -138 265
-156 280 -3 3 -14 20 -24 38 -11 17 -23 32 -27 32 -4 0 -8 5 -8 10 0 6 -10 21
-22 34 -13 13 -37 41 -55 62 -54 66 -112 124 -125 124 -6 0 -9 3 -5 6 3 3 -15
24 -40 46 -25 22 -51 45 -58 51 -7 7 -23 19 -35 27 -13 8 -32 23 -42 33 -10 9
-21 17 -24 17 -3 0 -12 6 -19 13 -30 26 -44 37 -50 37 -3 0 -37 21 -76 48 -38
26 -71 45 -73 42 -2 -3 -13 4 -25 14 -12 11 -21 15 -21 10 0 -5 -4 -4 -8 2 -9
14 -82 54 -99 54 -7 0 -13 5 -13 10 0 6 -4 10 -10 10 -5 0 -33 11 -62 24 -29
13 -63 27 -75 31 -13 3 -23 11 -23 16 0 6 -3 8 -7 6 -5 -3 -19 0 -33 6 -14 5
-29 11 -35 13 -5 1 -40 14 -78 28 -37 14 -68 25 -70 25 -1 0 -15 5 -32 11 -16
6 -41 13 -55 15 -14 2 -27 4 -30 5 -3 2 -8 2 -12 1 -5 0 -8 4 -8 11 0 6 -3 9
-6 6 -3 -4 -34 2 -70 12 -35 10 -67 19 -69 19 -3 1 -6 1 -7 2 -2 0 -16 3 -33
5 -16 2 -48 9 -70 14 -22 5 -53 12 -70 15 -16 3 -39 8 -50 10 -11 2 -38 6 -60
9 -22 4 -51 8 -65 11 -27 5 -118 15 -190 21 -57 5 -437 13 -442 9z"/>
</g>
</svg>
